<svg xmlns="http://www.w3.org/2000/svg" width="2048" height="674" viewBox="0 0 2048 674" role="img" aria-labelledby="title desc">
  <title id="title">Dedicated DSA and CP Sheet</title>
  <desc id="desc">Coding Gurukul Dedicated DSA and CP Sheet banner with launch price Rs. 299 and launch date 25th July.</desc>
  <rect width="2048" height="674" rx="18" fill="#f9fcff"/>
  <path d="M0 0h330C200 100 90 130 0 146zM0 674h300C174 595 75 570 0 520z" fill="#0246a3"/>
  <path d="M0 86c115 22 205 4 328-86h70C258 116 132 158 0 132zM0 585c100-8 176 19 276 89h66C230 555 110 512 0 535z" fill="#ff6b00"/>
  <path d="M1630 0h418v674h-418c84-89 104-196 60-320-32-92-36-224-60-354z" fill="#eaf4ff"/>
  <g fill="#0a47a3" opacity=".22">
    <circle cx="958" cy="24" r="3"/><circle cx="988" cy="24" r="3"/><circle cx="1018" cy="24" r="3"/><circle cx="1048" cy="24" r="3"/><circle cx="1078" cy="24" r="3"/>
    <circle cx="958" cy="54" r="3"/><circle cx="988" cy="54" r="3"/><circle cx="1018" cy="54" r="3"/><circle cx="1048" cy="54" r="3"/><circle cx="1078" cy="54" r="3"/>
    <circle cx="958" cy="84" r="3"/><circle cx="988" cy="84" r="3"/><circle cx="1018" cy="84" r="3"/><circle cx="1048" cy="84" r="3"/><circle cx="1078" cy="84" r="3"/>
  </g>
  <g transform="translate(80 110)">
    <rect width="112" height="92" rx="8" fill="#ff5b00" transform="rotate(-4)"/>
    <text x="56" y="40" text-anchor="middle" font-family="Arial, sans-serif" font-size="34" font-weight="900" fill="#fff">NEW</text>
    <rect x="0" y="54" width="112" height="32" fill="#fff"/>
    <text x="56" y="78" text-anchor="middle" font-family="Arial, sans-serif" font-size="25" font-weight="900" fill="#06113a">LAUNCH</text>
  </g>
  <text x="440" y="100" text-anchor="middle" font-family="Arial, sans-serif" font-size="28" font-weight="800" fill="#073b91">PLACEMENT ACCELERATOR PROGRAM</text>
  <text x="274" y="197" font-family="Arial, sans-serif" font-size="78" font-weight="900" fill="#073b91">DEDICATED <tspan fill="#ff6500">DSA &amp; CP</tspan> SHEET</text>
  <rect x="488" y="222" width="434" height="48" rx="22" fill="#0647a5"/>
  <text x="705" y="256" text-anchor="middle" font-family="Arial, sans-serif" font-size="34" font-weight="900" fill="#fff">COMPANY ORIENTED</text>
  <text x="352" y="323" font-family="Arial, sans-serif" font-size="29" font-weight="800" fill="#ff6500">Practice Smart. <tspan fill="#06113a">Crack OAs &amp; Interviews with Confidence.</tspan></text>
  <g transform="translate(146 352)">
    <g fill="#fff" stroke="#d8e3f4">
      <rect width="196" height="166" rx="16"/><rect x="214" width="196" height="166" rx="16"/><rect x="428" width="196" height="166" rx="16"/><rect x="642" width="196" height="166" rx="16"/><rect x="856" width="196" height="166" rx="16"/><rect x="1070" width="196" height="166" rx="16"/>
    </g>
    <g font-family="Arial, sans-serif" font-size="23" font-weight="900" fill="#06113a" text-anchor="middle">
      <text x="98" y="91">Topic-wise</text><text x="98" y="119">DSA Questions</text>
      <text x="312" y="91">CP Practice</text><text x="312" y="119">Problems</text>
      <text x="526" y="91">Company-</text><text x="526" y="119">Oriented Sheet</text>
      <text x="740" y="91">Curated</text><text x="740" y="119">Questions</text>
      <text x="954" y="91">OA &amp; Interview</text><text x="954" y="119">Focus</text>
      <text x="1168" y="91">Solutions &amp;</text><text x="1168" y="119">Explanations</text>
    </g>
  </g>
  <g transform="translate(1228 104)">
    <rect width="284" height="190" rx="16" fill="#fff7ed" stroke="#ff6500" stroke-width="2"/>
    <rect width="284" height="54" rx="16" fill="#ff6500"/>
    <text x="142" y="36" text-anchor="middle" font-family="Arial, sans-serif" font-size="30" font-weight="900" fill="#fff">Launch Price</text>
    <text x="142" y="126" text-anchor="middle" font-family="Arial, sans-serif" font-size="68" font-weight="900" fill="#ff6500">Rs. 299</text>
    <rect x="28" y="146" width="228" height="34" rx="10" fill="#0647a5"/>
    <text x="142" y="169" text-anchor="middle" font-family="Arial, sans-serif" font-size="19" font-weight="900" fill="#fff">Affordable Access</text>
    <text x="142" y="188" text-anchor="middle" font-family="Arial, sans-serif" font-size="16" font-weight="900" fill="#06113a">Launch: 25th July</text>
  </g>
  <image href="/logo_transparent.png" x="1570" y="74" width="300" height="300" preserveAspectRatio="xMidYMid meet"/>
  <text x="1720" y="406" text-anchor="middle" font-family="Arial, sans-serif" font-size="16" font-weight="700" fill="#06113a">Code Your Future. Create Tomorrow.</text>
  <rect x="90" y="538" width="1442" height="56" rx="16" fill="#0647a5"/>
  <text x="152" y="574" font-family="Arial, sans-serif" font-size="22" font-weight="900" fill="#fff">DSA Practice</text>
  <text x="474" y="574" font-family="Arial, sans-serif" font-size="22" font-weight="900" fill="#fff">CP Questions</text>
  <text x="768" y="574" font-family="Arial, sans-serif" font-size="22" font-weight="900" fill="#fff">Company Focus</text>
  <text x="1060" y="574" font-family="Arial, sans-serif" font-size="22" font-weight="900" fill="#fff">Interview Prep</text>
  <text x="1315" y="574" font-family="Arial, sans-serif" font-size="22" font-weight="900" fill="#fff">Affordable Access</text>
  <rect x="88" y="610" width="1110" height="50" rx="12" fill="#fff3ca" stroke="#ffb43b"/>
  <text x="288" y="643" font-family="Arial, sans-serif" font-size="25" font-weight="900" fill="#06113a">Perfect for placements, coding rounds, and interview practice.</text>
  <rect x="1236" y="604" width="328" height="62" rx="14" fill="#ff6500"/>
  <text x="1400" y="645" text-anchor="middle" font-family="Arial, sans-serif" font-size="35" font-weight="900" fill="#fff">Price: Rs. 299</text>
</svg>
